<mxfile host="app.diagrams.net" modified="2022-02-22T08:07:38.549Z" agent="5.0 (Windows)" etag="BujaeUkQQLnqxBSLj5Y3" version="16.6.2" type="github">
  <diagram id="ztGioignhJyoYjqZtGQa" name="Page-1">
    <mxGraphModel dx="842" dy="524" grid="1" gridSize="10" guides="1" tooltips="1" connect="1" arrows="1" fold="1" page="1" pageScale="1" pageWidth="827" pageHeight="1169" math="0" shadow="0">
      <root>
        <mxCell id="0" />
        <mxCell id="1" parent="0" />
        <mxCell id="YA8YuFgpxTzWTErR81UD-1" value="&lt;div&gt;1. Inicjalizacja parametrów harmonicznego szukania&lt;/div&gt;&lt;div&gt;&lt;span style=&quot;white-space: pre&quot;&gt;	&lt;/span&gt;a) rozmiar pamięci rozwiązań&lt;br&gt;&lt;/div&gt;&lt;div&gt;&lt;span style=&quot;white-space: pre&quot;&gt;	&lt;/span&gt;b) wskaźnik uwzględnienia rozwiązań&lt;/div&gt;&lt;div&gt;&lt;span style=&quot;white-space: pre&quot;&gt;	&lt;/span&gt;c) tempo regulacji rozwiązań&lt;/div&gt;&lt;div&gt;&lt;span style=&quot;white-space: pre&quot;&gt;	&lt;/span&gt;d) maksymalna liczba szukań&lt;/div&gt;&lt;div&gt;2. Inicjalizacja parametrów problemu do optymalizacji&lt;br&gt;&lt;/div&gt;" style="rounded=0;whiteSpace=wrap;html=1;align=left;" parent="1" vertex="1">
          <mxGeometry x="264" y="140" width="300" height="100" as="geometry" />
        </mxCell>
        <mxCell id="lVG-BhEgfNJfGKUg8-pU-1" value="START" style="ellipse;whiteSpace=wrap;html=1;" parent="1" vertex="1">
          <mxGeometry x="354" y="10" width="120" height="80" as="geometry" />
        </mxCell>
        <mxCell id="lVG-BhEgfNJfGKUg8-pU-2" value="" style="endArrow=classic;html=1;rounded=0;exitX=0.5;exitY=1;exitDx=0;exitDy=0;entryX=0.5;entryY=0;entryDx=0;entryDy=0;" parent="1" source="lVG-BhEgfNJfGKUg8-pU-1" target="YA8YuFgpxTzWTErR81UD-1" edge="1">
          <mxGeometry width="50" height="50" relative="1" as="geometry">
            <mxPoint x="390" y="430" as="sourcePoint" />
            <mxPoint x="414" y="130" as="targetPoint" />
          </mxGeometry>
        </mxCell>
        <mxCell id="lVG-BhEgfNJfGKUg8-pU-3" value="&lt;div&gt;1. Inicjalizacja pamięci harmonicznej&lt;/div&gt;&lt;div&gt;2. Generowanie pierwotnych wektorów rozwiązań - tak dużo jak rozmiar pamięci rozwiązań pozwoli&lt;/div&gt;&lt;div&gt;3. zapisanie ich do pamięci harmonicznej &lt;br&gt; &lt;/div&gt;" style="rounded=0;whiteSpace=wrap;html=1;align=left;" parent="1" vertex="1">
          <mxGeometry x="268" y="300" width="296" height="80" as="geometry" />
        </mxCell>
        <mxCell id="lVG-BhEgfNJfGKUg8-pU-4" value="" style="endArrow=classic;html=1;rounded=0;exitX=0.5;exitY=1;exitDx=0;exitDy=0;entryX=0.5;entryY=0;entryDx=0;entryDy=0;" parent="1" source="YA8YuFgpxTzWTErR81UD-1" target="lVG-BhEgfNJfGKUg8-pU-3" edge="1">
          <mxGeometry width="50" height="50" relative="1" as="geometry">
            <mxPoint x="390" y="430" as="sourcePoint" />
            <mxPoint x="440" y="380" as="targetPoint" />
          </mxGeometry>
        </mxCell>
        <mxCell id="TjnmQG_L_WYziqIGz26f-1" value="1. Inicjalizacja nowej pamięci harmonicznej z " style="rounded=0;whiteSpace=wrap;html=1;align=left;" vertex="1" parent="1">
          <mxGeometry x="270" y="420" width="290" height="80" as="geometry" />
        </mxCell>
        <mxCell id="TjnmQG_L_WYziqIGz26f-2" value="" style="rhombus;whiteSpace=wrap;html=1;" vertex="1" parent="1">
          <mxGeometry x="50" y="370" width="210" height="170" as="geometry" />
        </mxCell>
      </root>
    </mxGraphModel>
  </diagram>
</mxfile>
